<?xml version="1.0" encoding="utf-8" ?><svg xmlns="http://www.w3.org/2000/svg" xmlns:xlink="http://www.w3.org/1999/xlink" width="1024" height="1024" viewBox="0 0 1024 1024"><path fill="white" d="M0 0L1024 0L1024 1024L0 1024L0 0Z"/><path fill="#242345" d="M165.36 33.1387C175.907 38.842 189.026 48.3544 199.264 55.3219L249.222 89.315L357.682 163.447L407.797 198.224C424.068 209.583 441.982 222.259 458.802 232.742C457.372 213.295 470.661 200.258 490.467 202.918C496.965 204.185 504.756 209.391 507.95 215.364C517.522 233.259 508.204 246.533 493.693 255.299C513.602 267.487 533.785 284.087 553.323 296.593C551.371 290.102 548.606 283.673 546.352 277.263C538.474 254.868 528.263 232.002 521.562 209.305C537.5 217.741 553.885 227.683 569.536 236.692C601.147 254.612 632.54 272.912 663.709 291.59L898.153 429.571C925.628 445.622 953.81 463.174 981.388 478.713C979.081 480.563 975.899 482.617 973.343 484.195C931.922 509.77 890.672 536.237 849.003 561.328L765.554 612.642C728.48 634.937 691.551 657.472 654.771 680.246C640.951 688.71 627.01 696.855 613.27 705.46C590.176 720.461 565.858 733.878 542.699 748.808C537.019 752.469 531.081 756.176 525.247 759.577C528.517 747.066 533.884 733.614 537.751 721.176C542.016 707.46 546.055 693.636 550.224 679.886C533.452 692.981 516.548 705.905 499.514 718.658L428.868 772.681C341.682 840.729 253.833 907.922 165.333 974.251C164.639 943.36 165.133 910.737 165.161 879.746L165.196 745.546C151.592 738.29 137.085 731.979 123.342 724.888C116.296 721.253 109.844 718.489 103.273 714.02C101.61 730.193 101.303 739.768 101.35 756.035C95.8864 757.964 92.448 755.726 87.3607 753.508C72.551 747.049 60.0136 738.28 48.5924 726.861C47.0435 711.901 50.5681 686.844 54.6858 672.369C71.4073 613.588 112.527 558.567 165.364 527.982C164.494 511.758 165.296 490.317 165.336 473.599L165.389 371.469L165.36 33.1387Z"/><path fill="white" d="M477.387 275.891C487.29 283.491 498.725 290.577 509.089 297.717C540.991 319.695 572.986 340.955 604.742 363.212C634.052 383.552 663.209 404.112 692.211 424.888C716.032 442.146 743.802 463.258 768.211 479.205C742.794 498.104 716.83 519.182 691.424 538.476C633.588 581.821 576.018 625.518 518.716 669.566C497.714 685.134 476.875 700.923 456.204 716.929C439.97 729.269 424.143 740.91 408.129 753.63C420.967 723.544 427.712 691.211 427.974 658.502C428.127 648.872 427.203 637.697 427.363 628.752C428.883 620.886 431.329 614.358 431.965 606.262C433.759 583.435 426.563 567.67 411.941 550.682C414.527 546.408 416.195 542.514 418.052 537.9C424.883 541.371 463.491 561.863 467.668 561.909C468.675 561.919 469.428 561.33 470.142 560.662C475.645 555.504 488.932 522.383 493.26 512.951C497.433 503.86 502.096 495.02 505.955 485.781C508.535 479.69 510.777 473.461 512.673 467.124C515.8 456.101 517.417 444.704 517.477 433.246C517.497 409.27 510.397 383.929 495.783 364.701C491.648 359.261 487.199 354.979 482.382 350.175C482.59 348.777 482.705 347.366 482.727 345.953C483.126 328.301 475.438 315.612 463.711 303.287C467.36 294.859 473.166 284.318 477.387 275.891Z"/><path fill="white" d="M192.512 83.7806C199.005 87.2933 214.695 98.6553 221.785 103.424L294.844 153.583L395.3 222.928C413.917 235.759 434.332 249.523 452.602 262.794C447.794 272.111 443.059 281.465 438.399 290.857C417.416 284.937 402.698 290.043 385.162 301.872C366.212 298.688 351.789 299.535 332.877 301.255C319.225 302.497 314.003 300.292 301.294 308.982C284.747 320.297 275.923 335.298 271.595 354.665C268.179 371.456 270.941 383.885 280.266 397.971C277.16 403.865 273.602 412.174 270.718 418.376C267.645 425.234 256.462 445.662 255.883 451.346C257.561 455.598 265.448 458.885 269.425 461.037C275.538 464.397 281.68 467.707 287.848 470.967C300.986 477.932 315.129 486.078 328.38 492.407C327.142 495.888 325.532 499.109 323.95 502.446L323.035 501.911C308.503 493.524 289.696 482.412 273.971 477.411C256.934 472.557 246.868 480.338 233.309 486.153C214.407 494.261 212.003 493.769 201.332 512.521C198.38 513.334 195.518 514.61 192.674 515.772C191.964 495.661 192.495 472.105 192.475 451.797L192.387 333.957L192.473 155.468C192.509 131.64 192.216 107.584 192.512 83.7806Z"/><path fill="white" d="M571.271 270.166C574.69 271.175 587.409 278.959 591.161 281.136L647.212 314.255L928.255 479.775C920.704 485.299 908.329 492.63 900.222 497.73C876.479 512.545 852.544 527.049 828.423 541.24C774.824 573.716 721.432 606.531 668.249 639.683C651.875 649.189 636.051 659.39 619.931 669.306L573.59 697.289C579.278 676.844 586.727 656.663 593.549 636.563C595.588 630.555 598.464 618.833 601.644 613.774C604.804 608.748 659.433 569.023 669.678 561.287L729.075 516.005C744.965 503.895 760.153 491.119 776.532 479.373C756.691 464.014 732.901 448.021 712.316 433.515L645.134 385.249C634.892 377.963 616.998 366.02 607.024 358.017C605.161 356.523 598.539 338.425 596.966 334.519L571.271 270.166Z"/><path fill="white" d="M275.629 489.242C279.038 489.687 391.94 548.925 397.083 553.72C397.774 555.787 398.403 557.875 398.967 559.98C408.975 598.372 395.019 623.195 377.956 655.967C370.206 670.943 362.321 685.849 354.301 700.681L321.037 761.545C314.087 774.323 307.845 786.557 300.451 799.249C298.834 800.004 299.471 799.833 297.235 799.046C274.719 788.722 252.266 776.148 229.95 765.186C213.274 756.995 196.676 749.253 180.136 740.757C202.654 697.693 227.242 655.038 251.16 612.737C272.421 575.135 306.836 532.489 275.629 489.242Z"/><path fill="#242345" d="M332.114 572.214C357.51 569.336 380.443 587.554 383.386 612.942C386.329 638.33 368.17 661.31 342.79 664.318C317.317 667.337 294.235 649.097 291.281 623.617C288.328 598.137 306.627 575.102 332.114 572.214Z"/><path fill="white" d="M332.202 576.195C355.402 573.366 376.528 589.816 379.471 613.002C382.415 636.188 366.07 657.395 342.899 660.453C319.564 663.533 298.176 647.048 295.212 623.699C292.248 600.35 308.838 579.043 332.202 576.195Z"/><path fill="#242345" d="M335.324 583.449C354.184 582.162 370.535 596.365 371.9 615.219C373.265 634.074 359.13 650.483 340.281 651.926C321.322 653.377 304.796 639.141 303.423 620.176C302.05 601.212 316.354 584.744 335.324 583.449Z"/><path fill="white" d="M331.191 590.366C341.107 588.551 347.317 591.041 356.639 595.584C357.117 595.816 357.669 596.625 357.963 597.084C357.96 597.301 357.994 598.206 357.899 598.341L358.071 597.994C354.555 599.484 354.728 595.963 350.845 598.153C346.58 600.558 344.434 605.177 347.07 609.743C348.227 611.753 350.149 613.209 352.397 613.78C359.718 615.608 363.421 609.923 362.183 603.031C363.604 603.82 364.607 606.298 365.001 607.825C369.14 623.839 359.454 641.803 343.073 645.858C318.601 651.916 300.75 624.53 313.35 603.876C315.957 599.602 319.102 597.063 323.201 594.281C325.724 591.67 327.785 591.301 331.191 590.366Z"/><path fill="#242345" d="M323.201 594.281C325.724 591.67 327.785 591.301 331.191 590.366L332.192 591.318C336.445 593.123 340.407 596.909 338.007 601.778C336.807 604.202 334.652 606.017 332.059 606.786C323.43 609.307 320.871 602.206 323.411 594.953L323.201 594.281Z"/><path fill="#4F476A" d="M323.201 594.281C325.724 591.67 327.785 591.301 331.191 590.366L332.192 591.318C328.586 591.964 326.507 592.964 323.411 594.953L323.201 594.281Z"/><path fill="white" d="M328.282 596.784C330.236 596.716 331.187 597.011 332.272 598.609C332.106 600.754 332.271 599.992 330.681 601.923C328.749 601.795 328.027 601.63 326.878 600.358C326.892 598.315 327.001 598.817 328.282 596.784Z"/><path fill="#242345" d="M343.548 622.544C363.451 621.768 354.559 650.522 327.327 638.528C325.418 637.343 322.174 635.018 322.316 632.553C326.656 633.073 336.596 640.465 340.835 637.242C335.888 631.763 337.132 625.964 343.548 622.544Z"/><path fill="white" d="M345.331 628.518C347.268 629.315 347.696 629.449 348.708 630.989C348.445 633.085 348.546 632.418 347.159 634.32C345.065 633.408 344.003 633.044 343.087 631.031C343.742 629.276 343.547 629.819 345.331 628.518Z"/><path fill="#242345" d="M319.04 612.512C330.039 612.151 334.387 623.001 324.113 629.418C322.983 629.502 321.703 629.552 320.611 629.243C318.062 628.5 315.911 626.777 314.63 624.452C311.782 619.236 314.076 614.959 319.04 612.512Z"/><path fill="white" d="M319.982 618.731C320.758 618.378 321.665 618.48 322.344 618.996C323.023 619.512 323.364 620.358 323.232 621.201C323.1 622.043 322.516 622.745 321.712 623.028C320.542 623.441 319.254 622.859 318.79 621.708C318.327 620.557 318.852 619.244 319.982 618.731Z"/><path fill="white" d="M354.122 601.248C355.899 602.146 356.484 602.545 357.059 604.463C356.863 606.474 356.693 606.566 355.463 608.268C353.401 607.324 352.779 606.929 351.99 605.024C352.205 603.129 352.856 602.687 354.122 601.248Z"/><path fill="#242345" d="M284.438 675.107C308.649 672.496 330.411 689.961 333.105 714.164C335.798 738.366 318.409 760.188 294.215 762.964C269.905 765.754 247.954 748.262 245.247 723.942C242.54 699.621 260.108 677.73 284.438 675.107Z"/><path fill="white" d="M283.509 679.375C305.652 676.182 326.147 691.669 329.12 713.843C332.094 736.016 316.404 756.356 294.202 759.11C272.309 761.825 252.313 746.401 249.381 724.536C246.449 702.671 261.674 682.523 283.509 679.375Z"/><path fill="#242345" d="M285.713 686.835C303.349 684.893 319.22 697.613 321.167 715.248C323.114 732.883 310.4 748.759 292.766 750.712C275.123 752.666 259.238 739.944 257.29 722.301C255.342 704.657 268.069 688.777 285.713 686.835Z"/><path fill="white" d="M264.459 726.379C262.595 718.767 262.817 711.854 267.173 704.921C270.825 699.024 276.73 694.878 283.517 693.447C297.695 690.469 311.979 698.586 314.507 713.465C315.686 720.695 313.832 728.09 309.381 733.908C307.378 736.576 304.029 739.811 300.952 741.116C303.993 737.658 306.441 732.959 301.867 729.351C299.761 727.721 297.076 727.029 294.444 727.438C284.511 728.992 286.702 743.452 298.007 742.363C293.016 747.483 278.831 744.546 273.966 740.237C270.535 737.2 269.607 735.875 267.196 732.106C265.767 730.029 265.367 728.702 264.459 726.379Z"/><path fill="#242345" d="M265.517 726.447C265.494 723.701 265.231 721.11 267.005 718.941C271.083 716.613 278.069 717.695 280.476 722.101C281.652 724.305 281.821 726.909 280.939 729.246C279.299 733.553 274.765 735.305 270.638 733.231C269.693 732.756 268.805 732.178 267.989 731.506L267.196 732.106C265.767 730.029 265.367 728.702 264.459 726.379L265.517 726.447Z"/><path fill="#CDCAD0" d="M264.459 726.379L265.517 726.447C266.273 728.179 266.955 729.927 267.989 731.506L267.196 732.106C265.767 730.029 265.367 728.702 264.459 726.379Z"/><path fill="white" d="M272.17 723.659C273.101 723.335 274.134 723.545 274.865 724.206C275.595 724.866 275.908 725.872 275.681 726.831C275.453 727.789 274.721 728.547 273.771 728.809C272.368 729.195 270.911 728.398 270.479 727.008C270.047 725.618 270.795 724.136 272.17 723.659Z"/><path fill="#242345" d="M280.511 695.042C284.707 693.955 288.993 696.467 290.093 700.66C291.193 704.854 288.694 709.146 284.504 710.259C280.296 711.377 275.981 708.864 274.876 704.653C273.771 700.442 276.297 696.135 280.511 695.042Z"/><path fill="white" d="M280.505 700.646C281.545 699.892 282.998 700.118 283.759 701.152C284.521 702.185 284.305 703.64 283.277 704.409C282.238 705.185 280.766 704.967 279.997 703.923C279.227 702.879 279.456 701.408 280.505 700.646Z"/><path fill="#242345" d="M303.639 704.538C307.405 704.499 310.564 705.665 312.031 709.412C312.731 711.218 312.63 713.237 311.754 714.965C310.55 717.39 308.685 718.155 306.306 719.011C302.811 718.837 299.631 717.655 298.059 714.253C297.242 712.496 297.232 710.47 298.033 708.705C299.209 706.167 301.194 705.49 303.639 704.538Z"/><path fill="white" d="M304.433 708.843C305.217 708.413 306.176 708.459 306.916 708.961C307.656 709.464 308.053 710.338 307.944 711.225C307.835 712.113 307.238 712.865 306.399 713.173C305.227 713.603 303.922 713.056 303.406 711.92C302.89 710.784 303.338 709.442 304.433 708.843Z"/><path fill="white" d="M295.859 732.677C297.752 733.284 298.344 733.745 299.196 735.31C299.117 737.237 298.591 737.68 297.485 739.256C296.031 738.037 295.029 737.438 294.286 735.696C294.581 733.743 294.437 734.393 295.859 732.677Z"/><path fill="white" d="M343.597 310.737C373.429 307.927 405.175 315.97 432.288 328.04C484.776 351.406 516.99 399.488 504.228 457.842C501.328 471.104 495.543 483.511 489.63 495.915C485.365 493.725 481.071 491.592 476.749 489.517C465.372 483.898 453.218 477.218 441.802 471.359L372.124 435.458C354.633 426.229 332.316 413.768 314.792 405.724C326.217 396.302 334.098 388.382 341.125 374.566C348.694 359.313 353.637 342.125 349.982 325.096C348.972 320.387 344.488 314.858 343.597 310.737Z"/><path fill="#242345" d="M378.172 354.213C393.827 351.367 408.815 361.784 411.605 377.449C414.395 393.115 403.924 408.065 388.248 410.798C372.653 413.517 357.795 403.111 355.02 387.526C352.244 371.94 362.596 357.045 378.172 354.213Z"/><path fill="white" d="M380.611 357.776C394.227 356.315 406.468 366.122 408.013 379.729C409.557 393.336 399.825 405.637 386.228 407.264C372.513 408.906 360.081 399.071 358.524 385.346C356.966 371.621 366.876 359.25 380.611 357.776Z"/><path fill="#242345" d="M381.219 365.919C390.329 364.71 398.702 371.095 399.946 380.201C401.189 389.306 394.835 397.703 385.735 398.981C376.585 400.265 368.134 393.87 366.884 384.716C365.633 375.562 372.06 367.135 381.219 365.919Z"/><path fill="#242345" d="M464.161 394.606C479.158 393.863 491.978 405.288 492.958 420.272C493.937 435.255 482.715 448.253 467.749 449.469C457.856 450.272 448.298 445.681 442.741 437.457C437.185 429.232 436.493 418.651 440.931 409.773C445.369 400.895 454.248 395.098 464.161 394.606Z"/><path fill="white" d="M462.047 398.748C475.011 396.83 487.062 405.823 488.914 418.797C490.766 431.771 481.712 443.776 468.729 445.563C455.839 447.336 443.938 438.361 442.099 425.48C440.26 412.598 449.175 400.652 462.047 398.748Z"/><path fill="#242345" d="M463.338 406.255C471.988 405.135 479.899 411.264 480.975 419.921C482.05 428.577 475.879 436.456 467.218 437.487C458.619 438.51 450.81 432.394 449.742 423.801C448.674 415.208 454.75 407.367 463.338 406.255Z"/><path fill="white" d="M257.766 487.12C261.208 486.777 263.677 486.932 267.127 487.074C284.917 501.944 286.749 530.607 279.467 551.237C274.171 566.241 265.899 578.724 258.084 592.439L218.993 660.227C207.028 681.261 195.949 703.045 184.127 724.182C181.41 729.041 178.934 733.923 176.03 738.692C161.54 730.804 144.445 723.082 129.375 715.763C125.219 713.864 120.699 711.443 116.589 709.356C135.547 670.806 156.421 633.108 176.662 595.224C185.487 578.707 184.229 578.552 200.762 569.589C214.454 581.155 227.983 586.665 245.242 578.033C277.175 562.063 281.419 503.276 243.924 491.303C248.783 489.246 252.601 488.075 257.766 487.12Z"/><path fill="white" d="M289.327 404.154L484.697 505.897C478.202 520.304 470.416 535.433 464.429 549.773C452.776 542.987 437.592 535.942 425.426 529.991L374.758 504.612C366.484 500.392 358.617 495.449 350.449 491.112L268.95 448.059C270.705 442.991 275.059 434.713 277.543 429.572C281.566 421.143 285.494 412.67 289.327 404.154Z"/><path fill="#242345" d="M379.469 460.924C382.571 461.271 388.79 463.008 390.256 466.007C390.184 470.201 380.262 491.405 377.43 495.454C371.587 494.366 369.448 493.053 365.044 489.392C368.213 482.662 375.822 466.442 379.469 460.924Z"/><path fill="#242345" d="M420.432 481.259C423.948 481.562 429.491 483.301 431.006 486.851C430.864 490.797 420.397 513.945 417.941 516.629C414.806 516.623 408.372 514.651 407.22 511.325C407.749 506.753 417.799 486.588 420.432 481.259Z"/><path fill="#242345" d="M461.045 501.758C465.641 502.776 468.107 504.389 471.952 506.891C470.537 511.327 460.232 533.537 457.511 537.462C453.764 537.058 448.744 535.587 447.252 531.753C447.459 527.913 458.24 505.653 461.045 501.758Z"/><path fill="#242345" d="M441.394 491.06C446.453 491.891 448.692 493.622 452.073 497.36C450.116 502.287 440.111 523.097 437.497 526.829C433.802 526.22 429.364 525.17 427.382 521.705C427.116 518.273 438.909 494.446 441.394 491.06Z"/><path fill="#242345" d="M400.039 470.901C403.874 471.161 408.183 472.718 410.402 476.013C411.103 479.026 399.897 502.222 397.599 506.187C392.489 505.043 390.186 503.435 385.997 500.555C390.635 491.504 395.168 479.045 400.039 470.901Z"/><path fill="#242345" d="M301.212 418.876C303.207 419.109 310.589 421.279 309.987 424.154C308.408 431.694 304.02 438.952 301.04 446.05C299.942 448.665 298.465 451.396 296.639 453.503C294.574 452.934 292.577 452.14 290.685 451.135C289.34 450.414 287.095 448.44 287.188 447.183C287.591 441.758 298.243 422.063 301.212 418.876Z"/><path fill="#242345" d="M320.238 428.884C324.777 429.266 326.765 430.609 330.092 433.419C328.09 439.065 319.238 459.041 316.156 463.342C311.372 461.82 309.527 461.083 306.135 457.42C308.206 451.757 316.669 432.977 320.238 428.884Z"/><path fill="#242345" d="M339.968 439.88C344.896 440.831 346.441 441.775 350.585 444.495C348.627 449.209 338.845 470.47 336.501 473.755C332.436 473.494 329.298 471.103 326.296 468.621C327.951 463.04 336.823 446.189 339.968 439.88Z"/><path fill="#242345" d="M360.194 450.232C363.574 450.391 367.598 452.383 368.768 455.742C368.534 459.075 357.693 481.535 355.711 484.383C352.327 483.29 348.938 481.343 345.89 479.544C347.295 474.313 356.85 454.259 360.194 450.232Z"/><path fill="white" d="M192.022 758.501C202.423 763.444 213.507 769.439 223.899 774.662L287.515 806.103C295.899 810.178 310.963 818.672 319.11 821.099C321.468 819.118 323.243 817.344 326.073 816.162L326.305 816.396C324.487 818.858 322.433 820.188 319.999 821.997C306.094 833.754 290.688 844.251 276.333 855.467C258.958 869.143 241.415 882.605 223.709 895.85C213.831 903.362 202.715 912.246 192.659 919.223C192.302 904.964 192.569 889.521 192.552 875.182C192.642 836.288 192.465 797.393 192.022 758.501Z"/><path fill="white" d="M403.363 559.364C409.441 563.57 415.16 572.422 417.803 579.296C430.167 611.455 409.115 643.428 394.69 671.235C379.599 700.326 362.502 728.664 346.088 757.208C339.747 768.217 333.546 779.305 327.484 790.471C324.386 796.13 320.985 801.764 318.375 807.656L317.979 808.56L317.03 808.878C313.136 807.338 307.71 804.173 303.902 802.098C306.099 797.403 311.196 789.02 313.882 784.043L340.091 736.127C351.187 716.181 361.738 695.173 372.367 675.046C387.297 646.772 405.503 618.277 406.247 585.373C406.457 576.099 405.005 568.388 403.363 559.364Z"/><path fill="white" d="M315.074 312.882C315.697 313.119 315.657 313.264 316.18 313.856C317.704 319.585 317.529 330.588 316.328 336.446C311.899 358.048 301.782 372.23 284.331 384.629C278.768 374.017 280.735 358.103 284.552 347.247C289.737 332.181 300.725 319.809 315.074 312.882Z"/><path fill="white" d="M75.5062 644.333C83.2635 648.477 98.5801 659.731 107.12 665.152C103.597 673.554 100.477 680.562 98.0604 689.391C88.2405 684.039 75.62 675.816 66.074 669.66C68.7681 661.022 72.1482 652.726 75.5062 644.333Z"/><path fill="white" d="M91.0335 617.046C95.1462 618.923 115.198 635.64 119.869 639.485C117.773 643.37 110.261 658.982 108.89 660.835L107.79 660.751C97.4717 654.68 87.4931 647.444 77.6606 640.575C81.3087 633.214 86.3751 623.637 91.0335 617.046Z"/><path fill="white" d="M64.9719 673.255C74.85 680.343 88.4088 687.229 96.9072 693.776C95.1572 702.657 93.2208 710.301 92.1418 719.388C81.454 714.008 70.709 707.506 59.7698 701.907C60.5193 692.985 62.937 681.914 64.9719 673.255Z"/><path fill="white" d="M417.371 299.177C419.955 298.7 425.429 298.714 428.063 299.105C449.658 302.317 469.565 317.772 471.748 340.533L461.857 333.105C443.165 319.907 422.051 310.531 399.725 305.515C406.591 301.366 409.416 300.323 417.371 299.177Z"/><path fill="white" d="M107.606 592.341C109.952 593.453 131.9 612.78 135.09 615.541C132.173 620.149 124.785 632.415 121.857 635.891C113.571 628.692 102.066 620.174 93.2426 613.341C97.0905 606.824 103.108 598.501 107.606 592.341Z"/><path fill="white" d="M126.274 571.352C129.883 573.228 146.773 591.523 151.338 596.027C147.503 600.203 140.984 608.956 137.664 611.94L136.721 611.827C128.178 604.7 118.406 596.254 110.28 588.715C114.287 583.823 121.724 575.446 126.274 571.352Z"/><path fill="white" d="M483.483 213.222C492.252 212.41 500.032 218.831 500.897 227.595C501.763 236.359 495.389 244.178 486.63 245.096C477.796 246.022 469.896 239.581 469.023 230.742C468.151 221.903 474.639 214.042 483.483 213.222Z"/><path fill="white" d="M146.598 553.885C149.822 555.421 163.747 574.209 168.605 578.838C166.055 581.159 155.489 592.212 153.541 593.297C145.737 585.364 137.612 576.476 129.893 568.341C135.046 563.062 140.634 558.226 146.598 553.885Z"/><path fill="white" d="M194.15 526.986C196.516 528.015 209.417 549.793 211.483 553.38C207.211 554.895 194.409 561.957 191.614 561.649C187.648 557.263 175.579 541.28 172.649 536.228C180.469 532.263 185.875 529.859 194.15 526.986Z"/><path fill="white" d="M168.532 538.471C172.859 542.05 184.352 559.417 187.81 564.666C182.433 567.908 175.595 573.743 171.092 576.128C165.478 570.284 155.683 557.388 150.008 550.637C156.002 546.313 162.183 542.254 168.532 538.471Z"/><path fill="white" d="M361.762 752.368C371.4 757.218 380.901 762.309 390.591 767.078C385.971 771.347 380.112 775.603 375.058 779.429L368.709 784.253C362.568 781.685 355.119 777.813 349.028 774.84C352.907 767.5 357.687 759.921 361.762 752.368Z"/><path fill="white" d="M375.578 728.885C384.009 732.834 392.754 737.591 401.046 741.927C399.404 746.36 395.266 759.369 392.628 762.234L391.349 762.253C389.233 761.39 386.998 760.18 384.982 759.061C378.154 755.268 371.252 752.072 364.111 748.9C367.675 742.162 371.71 735.472 375.578 728.885Z"/><path fill="white" d="M218.172 519.656L219.133 519.746C223.016 524.462 233.666 543.904 235.766 549.595C230.323 550.605 222.312 551.306 216.617 551.958C214.714 551.188 201.318 529.089 198.812 525.164C206.663 522.092 209.886 521.132 218.172 519.656Z"/><path fill="white" d="M59.1787 706.175C62.712 707.245 70.4572 711.832 73.8757 713.789C80.0534 717.326 85.6178 720.406 92.0418 723.547L90.8488 743.864C81.9333 741.558 64.4301 728 57.8788 720.987C58.2546 716.09 58.7474 711.077 59.1787 706.175Z"/><path fill="white" d="M158.833 603.427C159.036 605.951 148.985 623.05 147.058 626.718L122.973 672.939C117.207 683.82 109.102 697.596 105.357 709.448C104.763 711.328 105.5 710.845 103.699 712.649C102.944 709.173 105.751 699.7 106.854 696.052C116.767 663.262 135.483 628.564 158.833 603.427Z"/><path fill="white" d="M335.513 318.745C337.718 320.495 340.127 324.833 341.012 327.435C348.954 350.81 327.618 393.052 305.15 400.738C302.624 399.961 301.426 398.957 299.25 397.488C309.563 390.455 317.24 383.479 323.665 372.556C332.533 357.481 339.969 336.303 335.513 318.745Z"/><path fill="white" d="M388.687 705.87C394.521 709.223 404.034 713.112 409.111 716.744C407.942 720.908 404.467 732.968 402.849 736.543C401.484 736.774 400.971 736.185 399.425 735.471L377.663 724.597C380.911 718.618 385.177 711.805 388.687 705.87Z"/><path fill="white" d="M226.568 503.066C235.591 502.508 243.59 506.025 248.512 513.75C259.114 530.591 254.653 553.415 237.71 564.231C231.641 568.105 216.473 570.657 212.319 563.466L212.801 563.318C218.522 561.65 221.709 564.079 226.698 563.282C249.458 559.648 256.935 524.998 239.156 511.146C231.455 505.146 225.031 506.508 216.308 507.659C220.297 505.025 221.997 504.15 226.568 503.066Z"/><path fill="white" d="M320.352 312.375C329.551 315.647 326.033 338.885 324.032 345.943C318.654 364.912 307.417 381.195 290.212 391.07C288.342 390.907 286.935 388.689 285.789 387.269C306.428 379.051 320.243 349.628 321.661 328.528C322.026 323.092 320.258 317.471 320.352 312.375Z"/><path fill="white" d="M338.824 498.11C350.92 504.435 361.507 510.422 373.971 516.568C371.963 520.151 370.915 522.118 369.402 525.903C368.236 525.972 337.695 509.897 334.754 508.026L338.824 498.11Z"/><path fill="white" d="M384.949 521.364C394.87 526.523 404.906 531.461 415.048 536.172C413.008 540.685 411.394 544.008 408.986 548.327C407.402 547.463 405.071 545.709 403.493 544.63C395.834 539.388 387.34 536.108 379.253 531.617C381.008 527.959 382.892 524.838 384.949 521.364Z"/><path fill="white" d="M400.503 684.696C403.537 686.037 409.51 689.935 413.721 691.935C413.133 697.796 411.601 705.812 410.63 711.743L406.777 710.082C401.493 707.321 396.194 704.59 390.878 701.89C393.985 696.039 396.942 690.289 400.503 684.696Z"/><path fill="white" d="M346.635 778.807C352.174 781.885 358.42 784.881 364.105 787.854C359.388 791.935 352.347 797.002 347.26 800.893C346.044 801.955 343.498 803.684 342.105 804.697L334.182 801.879C338.466 794.261 342.618 786.569 346.635 778.807Z"/><path fill="white" d="M232.675 516.707C245.138 515.285 244.8 541.549 239.442 545.364L238.608 545.118L237.364 542.832C232.922 534.295 227.987 526.615 223.456 518.245C226.868 517.364 229.18 517.122 232.675 516.707Z"/><path fill="white" d="M471.717 251.458C473.425 252.068 474.948 252.414 475.748 253.834C474.297 257.779 471.44 262.816 469.57 266.701C464.622 276.974 458.822 287.013 454.082 297.363C452.728 296.406 450.938 295.65 449.407 294.931C450.455 292.445 451.603 289.981 452.872 287.601C459.232 275.676 464.82 263.066 471.717 251.458Z"/><path fill="white" d="M411.012 664.463C413.056 666.01 414.694 666.726 416.967 667.864C416.265 674.296 415.491 680.719 414.647 687.133L410.86 685.815C408.011 684.512 404.842 682.815 402.013 681.383C404.905 675.589 407.894 670.138 411.012 664.463Z"/><path fill="white" d="M331.781 806.766C333.787 807.921 334.367 807.784 335.215 809.474C334.756 810.88 333.042 811.849 331.775 812.787C330.761 813.147 330.463 813.062 329.353 813.149L328.823 812.629C329.054 810.736 330.72 808.48 331.781 806.766Z"/><path fill="white" d="M416.732 655.345C417.23 657.265 417.403 660.396 416.378 662.211L414.775 662.314C413.884 661.256 413.936 661.341 413.631 659.989C413.998 657.979 415.312 656.921 416.732 655.345Z"/></svg>